Nederland
Komedie / Drama
85 minuten

geregisseerd door Tim Oliehoek
met Iliass Ojja, Mamoun Elyounoussi en Sallie Harmsen

Bram is goed bevriend met zijn neef Haas. Faris, de oom van Haas runt de pizzeria van Brams vader. Wanneer Brams vader slaande ruzie krijgt met Faris, begint Faris zijn eigen pizzeria aan de overkant van de straat. Een ware pizzaoorlog ontstaat en Bram en Haas komen hierin lijnrecht tegenover elkaar te staan...
 
http://www.moviemeter.nl/film/66694
 
http://www.imdb.com/title/tt1568339/

Audio: Dutch-Nederlands  Subs:Dutch-Nederlands voor niet Nederlands gesproken delen.

General
Complete name                    : Pizza Maffia-AC3-XviD-DVDRip 2011 TBS\Pizza Maffia-AC3-XviD-DVDRip 2011.avi
Format                           : AVI
Format/Info                      : Audio Video Interleave
File size                        : 1.46 GiB
Duration                         : 1h 21mn
Overall bit rate                 : 2 559 Kbps
Writing application              : VirtualDubMod 1.5.4.1 (build 2178/release)
Writing library                  : VirtualDubMod build 2178/release

Video
ID                               : 0
Format                           : MPEG-4 Visual
Format profile                   : Simple@L3
Format settings, BVOP            : No
Format settings, QPel            : No
Format settings, GMC             : No warppoints
Format settings, Matrix          : Default (H.263)
Codec ID                         : XVID
Codec ID/Hint                    : XviD
Duration                         : 1h 21mn
Bit rate                         : 2 101 Kbps
Width                            : 720 pixels
Height                           : 304 pixels
Display aspect ratio             : 2.35:1
Frame rate                       : 25.000 fps
Color space                      : YUV
Chroma subsampling               : 4:2:0
Bit depth                        : 8 bits
Scan type                        : Progressive
Compression mode                 : Lossy
Bits/(Pixel*Frame)               : 0.384
Stream size                      : 1.20 GiB (82%)
Writing library                  : XviD 1.1.2 (UTC 2006-11-01)

Audio
ID                               : 1
Format                           : AC-3
Format/Info                      : Audio Coding 3
Mode extension                   : CM (complete main)
Codec ID                         : 2000
Duration                         : 1h 21mn
Bit rate mode                    : Constant
Bit rate                         : 448 Kbps
Channel(s)                       : 6 channels
Channel positions                : Front: L C R, Side: L R, LFE
Sampling rate                    : 48.0 KHz
Bit depth                        : 16 bits
Compression mode                 : Lossy
Stream size                      : 261 MiB (18%)
Alignment                        : Split accross interleaves
Interleave, duration             : 40 ms (1.00 video frame)
Interleave, preload duration     : 500 ms

Thanks to Happy4all.

Enjoy...

TBS.